<!--?xml version="1.0" standalone="no"?-->
              <svg id="sw-js-blob-svg" viewBox="0 0 100 100" xmlns="http://www.w3.org/2000/svg" version="1.1">
                    <defs> 
                        <linearGradient id="sw-gradient" x1="0" x2="1" y1="1" y2="0">
                            <stop id="stop1" stop-color="rgba(226.059, 255, 250.637, 1)" offset="0%"></stop>
                            <stop id="stop2" stop-color="rgba(145.424, 254.744, 249.003, 1)" offset="100%"></stop>
                        </linearGradient>
                    </defs>
                <path fill="url(#sw-gradient)" d="M26.2,-30.7C33.5,-25.1,38.7,-16.4,39.6,-7.6C40.4,1.3,37,10.3,32.1,18.3C27.2,26.3,20.9,33.2,12.8,36.8C4.8,40.3,-5,40.6,-13.2,37.2C-21.3,33.8,-27.8,26.8,-30.9,19C-34,11.2,-33.8,2.6,-32.8,-6.4C-31.9,-15.3,-30.3,-24.8,-24.7,-30.7C-19.1,-36.6,-9.6,-38.9,-0.1,-38.8C9.5,-38.8,18.9,-36.3,26.2,-30.7Z" width="100%" height="100%" transform="translate(50 50)" stroke-width="0" style="transition: all 0.3s ease 0s;" stroke="url(#sw-gradient)"></path>
              </svg>